PathFileType	3	(X/Y/Z)	results
DataRate	CameraRate	NumFrames	NumMarkers	Units	OrigDataRate	OrigDataStartFrame	OrigNumFrames
30.0	30.0	4	85	mm	30.0	30	233
Frame#	Time	head			nose			neck			shoulder_r			elbow_r			wrist_r			shoulder_l			elbow_l			wrist_l			hip_r			knee_r			ankle_r			hip_l			knee_l			ankle_l			heel_r			heel_l			mtoe_r			ltoe_r			mtoe_l			ltoe_l			asis_l			asis_r			psi_r			psi_l			mhnd_r			lhnd_r			mhnd_l			lhnd_l			l_lat_knee			r_med_wrist			l_lat_ankle			r_med_ankle			r_lat_knee			xiphoid			l_med_ankle			r_med_knee			l_med_elbow			navel			r_lat_elbow			r_lat_wrist			l_med_wrist			l_lat_elbow			l_med_knee			r_med_elbow			r_lat_ankle			l_lat_wrist			chin			T10			r_eye			l_eye			l_ear			r_ear			spinal_cord_8			spinal_cord_12			spinal_cord_27			spinal_cord_33			up_arm_r_0			up_arm_r_5			up_arm_l_0			up_arm_l_5			front_torso_11			front_torso_7			front_torso_4			front_torso_1			front_torso_10			thigh_r_2			thigh_r_3			thigh_l_1			thigh_l_5			shank_l_0			shank_l_4			shank_r_1			shank_r_2			foot_r_1			foot_r_3			foot_r_5			foot_r_6			foot_r_7			foot_l_1			foot_l_7			foot_l_0			foot_l_4			foot_l_5			foot_l_6			
		X1	Y1	Z1	X2	Y2	Z2	X3	Y3	Z3	X4	Y4	Z4	X5	Y5	Z5	X6	Y6	Z6	X7	Y7	Z7	X8	Y8	Z8	X9	Y9	Z9	X10	Y10	Z10	X11	Y11	Z11	X12	Y12	Z12	X13	Y13	Z13	X14	Y14	Z14	X15	Y15	Z15	X16	Y16	Z16	X17	Y17	Z17	X18	Y18	Z18	X19	Y19	Z19	X20	Y20	Z20	X21	Y21	Z21	X22	Y22	Z22	X23	Y23	Z23	X24	Y24	Z24	X25	Y25	Z25	X26	Y26	Z26	X27	Y27	Z27	X28	Y28	Z28	X29	Y29	Z29	X30	Y30	Z30	X31	Y31	Z31	X32	Y32	Z32	X33	Y33	Z33	X34	Y34	Z34	X35	Y35	Z35	X36	Y36	Z36	X37	Y37	Z37	X38	Y38	Z38	X39	Y39	Z39	X40	Y40	Z40	X41	Y41	Z41	X42	Y42	Z42	X43	Y43	Z43	X44	Y44	Z44	X45	Y45	Z45	X46	Y46	Z46	X47	Y47	Z47	X48	Y48	Z48	X49	Y49	Z49	X50	Y50	Z50	X51	Y51	Z51	X52	Y52	Z52	X53	Y53	Z53	X54	Y54	Z54	X55	Y55	Z55	X56	Y56	Z56	X57	Y57	Z57	X58	Y58	Z58	X59	Y59	Z59	X60	Y60	Z60	X61	Y61	Z61	X62	Y62	Z62	X63	Y63	Z63	X64	Y64	Z64	X65	Y65	Z65	X66	Y66	Z66	X67	Y67	Z67	X68	Y68	Z68	X69	Y69	Z69	X70	Y70	Z70	X71	Y71	Z71	X72	Y72	Z72	X73	Y73	Z73	X74	Y74	Z74	X75	Y75	Z75	X76	Y76	Z76	X77	Y77	Z77	X78	Y78	Z78	X79	Y79	Z79	X80	Y80	Z80	X81	Y81	Z81	X82	Y82	Z82	X83	Y83	Z83	X84	Y84	Z84	X85	Y85	Z85	
30	1.0	-844.8657302101434	1888.1423101123416	-401.8652156994824	-962.7684623994058	1661.480973944374	-405.8627585226483	-767.037457216712	1502.723389660053	-376.06536646392397	-741.5703789319317	1465.6206277349086	-610.5951836604198	-809.4539811630752	1182.159290922387	-693.7011725827741	-1004.3613847829633	993.6302917985594	-711.4719506831741	-774.7707042800787	1462.9864051566994	-178.53181578819496	-742.5884491352125	1184.8203432762332	-56.97288315350103	-806.7751362157339	920.2249278404473	-24.772340656024653	-733.5226790265864	908.2658728531325	-468.80229507382217	-631.7660268697683	533.1156164068158	-446.40448150754884	-557.0176154608387	120.36054813459518	-472.89511598597994	-757.6665446714735	914.7333630358063	-236.07811723574684	-925.7066272602899	564.8039031384677	-299.4727652629441	-953.1951095438117	146.55012132741751	-298.50430149496174	-539.5109197274651	63.76602453862311	-464.7828052710864	-941.5120519038668	78.49049258820794	-287.42402749228955	-746.5021689517529	26.96009794142265	-564.765260130959	-659.8908035919249	18.083677296435013	-595.1805437361281	-1156.68290351889	112.28693350595726	-381.734055046842	-1134.2930637674253	95.70630686162197	-282.9223160846039	-828.7540614932125	982.6590160643258	-193.03785303326714	-788.575317141295	970.2598822629908	-533.2128356304751	-630.0665659800148	1021.9899376876444	-402.28600563251763	-649.4631021475412	1023.710311850282	-286.9250300310287	-1032.6233444583956	928.6149123184085	-730.3385836848266	-1078.6547844062045	948.5345027064891	-711.5407457812594	-807.8745510056993	852.0391165311845	9.346616302935828	-837.633255983931	837.8665376342467	-32.71648877902511	-946.8362851951559	562.226676755058	-254.56822402600903	-979.3698212500706	984.9810186249346	-733.1408937349103	-974.3551879146293	131.82261858917954	-244.9796358625719	-587.914815170258	102.95936990863608	-451.39660153737753	-610.6269478230657	526.0063808413021	-484.6300832415318	-866.7144959079461	1304.428392329534	-392.1536145187052	-953.6423120911072	134.1165346162504	-334.28925446082167	-657.1982746641922	521.8486503609852	-413.9138865662691	-703.3687213794609	1196.2733271168686	-66.59923464948217	-874.8226168058568	1053.1758064425762	-385.9656010385141	-832.7398469851199	1205.391318632093	-726.343753262112	-1014.5494701442352	1013.7576143129712	-681.262625754542	-799.6260999139356	934.8011798168113	9.743531485093333	-784.1443807746286	1200.1332672506512	-42.9403146815078	-923.5256530148694	573.360163638949	-347.74075831610264	-784.1271074205478	1173.7787765567641	-660.3375565807144	-527.7611823900219	108.44252073681288	-517.6744672597385	-822.0777173894442	929.1782250779756	-56.92214894296505	-927.815024876062	1574.429577750668	-401.19586115800223	-646.741524507616	1326.2695416117558	-354.01258598785984	-963.4020712921575	1698.273823275945	-446.49337074698093	-971.1622655499823	1699.5933390541047	-363.91691028758055	-855.4752055401029	1710.915312258564	-289.9776333161806	-832.6910799076068	1704.3468337727927	-494.3941099734405	-714.4517293088163	1572.6994781128528	-367.83317857409156	-651.5245055604579	1440.8934583485097	-353.6569799015513	-655.6899190083575	1151.7748343848978	-368.1366490659096	-661.0372422317388	1314.6503025072748	-356.18204400836686	-825.2845863552683	1332.5373867544229	-634.2597559035949	-748.4235342702248	1297.7167843453533	-692.2409684681154	-797.5516980900677	1410.8738352432783	-137.13988448992197	-704.1175888619115	1270.5697353078838	-84.57035953821338	-820.9230906591852	1085.6914038240775	-439.03351685943846	-897.3422252586267	1203.4948004379671	-397.2405272996979	-889.2516447185573	1357.4875801482183	-314.00717940614345	-852.7970274183381	1126.7503727061799	-294.23353503259347	-868.3817206901531	1400.8582682689687	-496.5338862840656	-689.8131947793248	701.7430552012408	-442.9889036046088	-629.9136339395474	675.9202191252527	-522.2220486923028	-858.368705090113	665.0648290844881	-324.9464086432744	-856.9248299206938	829.2771456645222	-166.8211507731583	-986.4684757898092	250.4318048219833	-236.9920684468546	-919.098380003386	401.92838657836415	-348.66745202251434	-562.7735295648868	366.10500665287304	-508.21716084576775	-621.6720891511941	310.4030958870727	-428.1752745896389	-718.5875882857587	17.709695307562857	-575.616012872154	-691.7387252206133	17.233650507201027	-589.9271026875765	-677.1736165236264	50.8242755061256	-518.0107778193523	-647.4569798163578	52.50748081061293	-546.4001280801954	-621.1382157625902	34.75456922248063	-565.6403219400182	-1152.0230312880065	98.90656069773888	-323.69787133034555	-1051.8533226139436	114.96656739270398	-266.92386820435337	-1149.884617454758	98.75269923881605	-306.18687086453076	-1154.0313077618835	98.96213751965114	-344.9673506876173	-1097.3718222053103	106.58469252852571	-316.5708814884427	-1055.3212141855954	112.03550136063203	-335.5088535513975	
31	1.0333333333333332	-886.8780313932108	1879.458196288986	-401.7533626813083	-1002.7647738706924	1651.8171059420858	-408.24896299203493	-804.2415606070207	1493.9306437174528	-383.25540794364224	-791.9272074435911	1456.6417766359941	-611.849168829479	-861.3483805264187	1174.7505905997134	-698.9306150568107	-1055.9964792140622	986.1904389357097	-719.0568897370711	-810.9306005684091	1453.427745300852	-177.91758933114824	-766.3919955909132	1171.8913133718258	-68.63730842505768	-810.0252066072461	905.8143006255037	-18.971366477498567	-762.9067781678872	901.0743418757579	-480.05944052605815	-642.8252308956008	532.5541643599756	-444.75250987519945	-553.9564514208719	122.47494224158534	-469.10814021156864	-793.2750461277054	902.1610243513459	-247.97780607329202	-959.6720864106841	552.4313436351713	-310.0230271456498	-1056.6832882178844	144.90677514339345	-324.35248558202665	-534.8465901786708	66.03649411439535	-460.95881860008325	-1055.0275037711647	76.31714626851475	-315.98764296423235	-742.4363861115115	28.070313066375444	-559.2522084546745	-655.9989113391335	18.097467671245514	-589.822034091119	-1266.8677448889953	138.92426927296944	-402.8158439880144	-1244.1498220209437	116.30904994393195	-305.28415838780853	-867.8219820256068	966.7021725409935	-205.58690765809908	-818.4449654885108	962.3419301007475	-544.74761783174	-665.3143446819212	1017.03949584751	-408.7253883432203	-687.736302178427	1015.8333739800951	-293.9075278582296	-1084.2621395030828	921.5026985474431	-739.0127526938239	-1130.1968623628477	940.9437972511175	-719.4912985539038	-805.0369283704762	839.8874413717255	19.020515680605463	-835.0358550917558	821.1476800897219	-21.037355785215755	-982.4907708781493	549.6221384138	-265.3496816376902	-1031.1446307389044	978.0289269116246	-741.0729433361723	-1078.0829689942711	131.44086739002975	-270.5913371970662	-584.7663430463701	104.07009557468538	-448.3322822455289	-619.3940016088654	525.7378257428742	-481.7272177960626	-904.6352427108887	1295.823951827623	-397.0429732157239	-1060.4820541224283	134.37770159727614	-360.5473044827223	-669.2999866648937	520.3487448159954	-413.40953237672585	-727.8282113948698	1185.083603004952	-78.6783526899739	-913.0979023922921	1044.5911410217018	-390.5350383756726	-884.8980783266612	1198.5726882001754	-730.9527344655135	-1066.0068360309456	1005.6896577821592	-688.3798180328106	-802.8388039470873	922.9009898530367	14.365129130658302	-808.0915688389888	1185.1682874207356	-53.04366792579417	-960.3846028231253	561.1147939909722	-358.7718281051343	-835.7130758736174	1165.7612304482125	-665.9634042745819	-523.2715183344594	111.52046953877614	-513.1717642439374	-826.978400225417	911.7191436474133	-50.997336406916055	-966.9741535650078	1565.025986390471	-405.45586970757864	-683.8372195503	1317.2517989197615	-363.74188699588063	-1004.1996567961704	1689.2815296244312	-448.24046135141896	-1011.0184437314942	1689.1385599436878	-365.5705317324097	-894.5933048202459	1700.2817379142912	-292.771381845633	-874.1101426478034	1697.367230325666	-497.51586390157706	-751.3511846694622	1563.8073264781535	-376.2170848653129	-688.3867767269469	1431.8850899305933	-363.3472060649616	-693.4345656770741	1142.7676110362038	-377.56667987312466	-698.199756706193	1305.6596046477266	-365.5910406191976	-876.2082830663469	1324.165161368859	-636.8666873530009	-800.0144478328505	1290.1236489293542	-696.1759749346625	-830.9206890473941	1398.9298570391043	-138.18898331274752	-731.533078070982	1259.971120961177	-93.56499165338539	-860.3101907177155	1076.9723742355839	-444.7894383188873	-935.5646600922355	1194.9482277998297	-401.40002511722395	-925.3512276765172	1348.968802387156	-318.4520154966545	-888.9241561394509	1118.170709893505	-299.3495551055693	-908.399674332232	1392.2016611575007	-501.4168585744354	-709.7852808318514	697.6871879256544	-447.8058123264989	-644.5654336601567	673.7069201256894	-523.3305488267732	-894.985968797626	652.7696746108421	-336.47480071332694	-891.5927403497789	816.3935688086843	-177.77043997673277	-1069.892335268258	249.9240093333462	-257.42582810771603	-982.163232039908	393.1467569402721	-365.83332047601465	-566.9403028628958	367.8946079397584	-504.76937382764044	-625.8581809638042	310.2950094880286	-426.096528207134	-714.6134342876024	18.445123525293234	-570.0119331630514	-687.8280627091361	17.521298475002325	-584.4197704375316	-672.7949357684056	52.6117766701971	-513.3205883315338	-643.19095021717	53.52297084522314	-541.8624987472593	-617.0407586697451	35.22095712106128	-560.8159165554298	-1262.3896516660732	123.04402142877224	-345.3988446275141	-1159.611196775781	124.98937856081851	-291.1034803886388	-1259.8433815974115	122.0179007941389	-327.97199151040905	-1264.9136476561657	124.08960361298297	-366.5875967721338	-1207.048777338369	123.87092269917609	-339.6363616772258	-1165.1400441586213	124.91500696834623	-359.6158438756391	
32	1.0666666666666667	-931.6481621191022	1870.3033010159838	-398.6567448218058	-1044.1789899288826	1641.2491762307723	-411.44019627634606	-843.2307179000653	1484.96261601093	-388.24845657561883	-838.8863857824139	1446.5708323741876	-615.2102405892587	-913.1408375190504	1166.4355670261414	-703.954974629378	-1111.2754959265947	980.9754744516281	-717.9224815919945	-850.367910267168	1444.442011347388	-181.49286683415843	-793.0874097505698	1162.2834188670822	-80.0330098379879	-822.3804065162188	895.1754942757258	-25.60124920022613	-799.4952956795229	893.0397633148474	-490.020610891687	-666.3889275195977	529.9018864741238	-446.29426055091676	-554.9172356693792	125.21289030341681	-467.6648806174817	-832.8553960054702	891.723242034493	-258.3513032441038	-997.5673648052359	541.6695967097933	-319.97893798587467	-1129.3125163920097	144.67989748177334	-347.0930361599099	-532.8504941641906	69.26011695869275	-459.55988472913265	-1132.7452436614794	75.82663738459132	-342.36788751594486	-741.3605078411068	27.17921067325594	-554.1607107855932	-655.305481852578	19.083328100222285	-586.3227709997736	-1343.4686653462938	158.99513657569682	-413.1754887782715	-1318.002650418647	126.96953992460669	-319.0169782569005	-908.3177719370931	955.4268616985506	-216.3147430815188	-854.5528408901338	954.6073743507894	-554.8346825706624	-703.508612811893	1008.8704463842562	-416.3283006960369	-727.3997951548972	1006.4331935544484	-301.8267234178968	-1141.2754179537078	916.8805546543772	-737.249501771368	-1186.1187217311015	936.8484140213735	-715.8157677668908	-812.934316182615	830.0777575660412	12.969113170850713	-843.4571073011317	809.4200604650746	-25.726701803479077	-1016.8351618691007	536.3237431063159	-273.53947515223575	-1087.421264715986	972.6209392862554	-740.946570341636	-1146.9313620526132	129.67760116004112	-292.37516460695326	-584.5353254562269	105.30540531670879	-446.544159135621	-640.5996813274146	524.0395046302498	-481.82355716253295	-944.201875985594	1287.031814875902	-400.2264752327071	-1137.1650472601784	136.71485953905204	-383.29045121853943	-694.0954812813203	516.6921661739872	-416.4693554337593	-755.3362506148105	1176.9387381729211	-91.08272147059553	-952.79345244139	1035.7812710334426	-394.63683453924835	-937.5789020750158	1190.8742792283356	-734.8261112888972	-1119.7930957562812	1000.3743526492501	-686.7352482202037	-814.7966405595589	913.0323323288927	7.239900293091975	-834.6254912082803	1173.8581979567787	-62.74410152009112	-1004.572984260417	552.6180901472719	-368.0518791195406	-886.4832799615876	1156.800378903464	-671.996373248116	-523.9164429922525	115.59310429544118	-511.818919211145	-840.7429397729807	899.8484829119726	-57.048367422542825	-1007.2216852933528	1554.9223688431039	-409.6213325340292	-722.5604397173184	1308.0637738355729	-372.79269245846905	-1045.440131237376	1679.4358026293505	-450.748629961551	-1053.7064950695471	1677.6440363097356	-368.2302055869849	-938.7461834828912	1689.0194865091953	-293.1740565871597	-914.6326656541476	1690.2389099899744	-497.5399257623253	-790.0843892956883	1554.7480510331036	-382.3204327183425	-726.9574372614857	1422.6989873757664	-371.7535193710259	-732.7404158151069	1133.655471682934	-387.14810952112236	-736.9817732562964	1296.495991254481	-374.30674524214885	-924.8781543748747	1315.023355229882	-639.2914890026802	-850.9450758993196	1281.35519228498	-701.5993649193357	-867.2165549398236	1388.497395233881	-142.32261410125105	-761.948437846272	1251.9607119078532	-104.17702707608039	-901.4476768252908	1068.3528066015058	-450.14659114660475	-975.3609021778184	1186.2112238059801	-404.2074251215217	-962.7269983653414	1339.838539932379	-320.86442234269634	-926.0807169590167	1108.9153456785398	-303.8020823167995	-950.6602393446393	1383.8911379279978	-504.02099737425357	-739.8884251903477	692.1156333557454	-453.8952819126229	-669.4772135058757	670.7473160074995	-525.4377435359294	-938.8087013815681	644.5455039855203	-348.072750339812	-922.0258689733902	800.6652519549771	-182.79623144227105	-1127.6977579405343	246.12206140587966	-273.6821662896503	-1038.186792333792	388.3587769522461	-381.93113475420915	-581.773128403474	369.1992573415952	-505.3547999283228	-636.9436205974467	309.10938325648823	-425.8320323503968	-713.5435837677134	18.161637685356666	-565.4494091250986	-687.0118996406693	17.829871561655654	-580.3442077766379	-671.4204232646064	53.0698346131055	-509.4394749989698	-642.367181002423	54.662837863784894	-538.5124579938374	-616.1907246223661	36.95348591072265	-557.9855228713307	-1337.519057231102	138.16574510746298	-357.5006648413365	-1232.5163439541689	128.9504905422243	-308.4630153297716	-1334.2695978759812	135.53956348609015	-340.36077544917543	-1340.91384407378	141.12084073063278	-378.3853445721529	-1282.049323651729	134.9249954145923	-354.4826282478488	-1241.1070221984057	134.89891313895419	-376.39926596966245	
33	1.1	-976.6360082526269	1861.5807906927007	-394.4260200669147	-1087.1126608773905	1632.0363721095603	-414.3424716062763	-884.3174484051391	1476.9394217708495	-391.5345179178891	-882.5381827118786	1437.9542668973522	-618.7451167980869	-965.0909696323048	1159.903921944403	-706.7119364370683	-1169.6036562200457	980.9788001729145	-709.5828029429259	-891.5699490138563	1435.247482324549	-191.85003128007224	-823.1116001908032	1155.9349910537937	-89.44585007574838	-836.9402708909906	885.7089772310277	-45.23941473806619	-844.2644156207375	883.7769700432308	-496.8574512532072	-701.7942602703778	524.520038306963	-449.3626586287983	-563.2871105632491	128.1960899609699	-469.33570434255	-877.1383393958507	885.2465152001272	-265.11957519361846	-1038.2984970006162	533.9441828939944	-328.18669747206417	-1175.54874771565	139.2481400381791	-360.9003492429679	-537.4559936923771	73.2184044589989	-461.4890816934661	-1179.5583732075047	70.26496820891789	-358.1465036516468	-745.8872972909268	23.755294917234107	-552.6281909857169	-660.3358643960408	20.85418515483395	-586.9493917444552	-1391.6879333942175	157.87124739621436	-418.65489681103605	-1363.724599533516	121.16207356610656	-326.9462801119357	-951.3751171973656	950.6669758221939	-223.5400383576192	-898.3697139100946	945.6884733494735	-562.1441294983107	-746.0919651888915	998.5905566547286	-424.4643761987553	-769.7731635975324	997.6612277551435	-309.8970283896525	-1202.6121050947381	917.8217744201102	-726.9988924985422	-1245.6391279642023	939.3366606590301	-703.4441216895667	-826.7040386371174	820.2759637087551	-7.445802957911515	-850.978965513784	798.6467189124982	-49.85630894856814	-1054.1991907188656	526.3669366228589	-280.70616110966563	-1147.2306340360456	971.7520012342673	-733.7332755455485	-1190.1704488091218	122.55346488566337	-305.79107812359797	-590.7983093429816	106.60039920709086	-447.056023923007	-674.3854796621757	519.845159516745	-483.78139435621364	-986.2166909384777	1279.4026366488697	-402.0707709919706	-1185.5393538192343	132.5813501845659	-396.83221017615665	-730.2841867499438	510.45238504891444	-420.7412007301089	-785.6874065978452	1173.8241548900721	-95.8826255393556	-995.4327029236981	1028.14277062781	-398.14140712783274	-990.3154126275589	1185.0222519182091	-736.3816804012497	-1175.895258443065	1000.7752122099673	-678.118103365496	-834.5121134622392	902.9908911008307	-11.322445889379265	-867.1280811659458	1163.718979554455	-76.78674273858573	-1049.404741511365	546.5258639681223	-375.1471064351024	-937.3505241446994	1149.5393658892117	-675.9246324098688	-533.0564209522736	120.10512826203274	-514.322483489443	-851.9941527378521	890.0096453102436	-78.44823269808532	-1049.5172287345288	1545.9683039005806	-413.75987247312395	-763.8059720977478	1299.5748957267137	-380.94178345125704	-1087.9598235263372	1671.0795755169418	-452.8115820070225	-1097.7089752928464	1667.3866332054517	-370.51850954203013	-984.2235397625803	1677.9420482739279	-293.1341523032228	-956.4131598354618	1683.8979661300614	-496.94648517398855	-830.8018216083781	1546.5215209730463	-386.62638065653636	-767.8100967112728	1414.2111140709721	-378.90460861298067	-774.948023612521	1125.3125347795353	-396.31871478744984	-778.301576340783	1288.061313564257	-382.1231784467175	-971.6770855574666	1308.095702339408	-640.4301057138091	-900.878512874605	1273.730589360367	-705.9168815254926	-908.0600270787721	1377.1272328968405	-155.82088293561603	-796.9061721741891	1248.4056209007965	-108.34146292463271	-945.6210293280573	1060.9894454919647	-454.8734069644172	-1017.7954620786918	1178.7071651665985	-405.9084389284224	-1002.2592726221002	1331.6521172510852	-321.8043822665842	-965.859111301184	1100.4984732370908	-307.57005237964734	-995.3865655183524	1377.0749038016033	-504.8948118356086	-779.9510963613266	684.5890025229809	-459.2213653226815	-706.0058845832453	665.8423687653584	-527.875111834765	-984.281832372974	639.1804798932798	-356.46864939311797	-958.4513827183893	789.2732355647973	-186.83280579233573	-1168.6759004111925	238.12836107367968	-284.36446393764055	-1084.001670077118	383.1743619158938	-392.7769528119532	-608.1011300735195	369.1961849107888	-509.10722910843	-656.5289695180351	306.58972528906787	-427.1705320788811	-717.9443777675152	16.45384856165543	-564.8107493099003	-691.7920456262905	17.867386915826998	-580.3011589605298	-676.2331856585009	51.71852140216579	-508.71587533172857	-647.9957351181492	55.596970214814725	-538.3717500837996	-621.4656846318245	39.77949648943082	-558.9628213788379	-1384.2701224960342	134.32170314800499	-364.25505808654697	-1277.958041507541	122.18572944864653	-318.8057306976445	-1380.5444337672272	130.8462466326516	-347.365058977889	-1388.2470421267317	138.3090127374029	-384.863611839718	-1328.7588429680018	130.65198186210665	-363.0167779637406	-1288.467481536556	131.4836396507699	-386.09330883240244	
